<?xml version="1.0" encoding="UTF-8"?>
<svg width="54px" height="54px" viewBox="0 0 54 54" version="1.1" xmlns="http://www.w3.org/2000/svg" xmlns:xlink="http://www.w3.org/1999/xlink">
    <title>icon-页签-服务器01</title>
    <g id="页面-1" stroke="none" stroke-width="1" fill="none" fill-rule="evenodd">
        <g id="PC-服务器-001" transform="translate(-505.000000, -760.000000)">
            <g id="编组-46" transform="translate(0.000000, 680.000000)">
                <g id="icon-页签-服务器01" transform="translate(505.000000, 80.000000)">
                    <rect id="矩形" fill="#D8D8D8" opacity="0" x="0" y="0" width="54" height="54"></rect>
                    <path d="M46.2620768,35.8718763 C47.5047175,35.8718763 48.5120768,36.8792356 48.5120768,38.1218763 L48.5120768,45.9968763 C48.5120768,47.239517 47.5047175,48.2468763 46.2620768,48.2468763 L8.01207679,48.2468763 C6.76943611,48.2468763 5.76207679,47.239517 5.76207679,45.9968763 L5.76207679,38.1218763 C5.76207679,36.8792356 6.76943611,35.8718763 8.01207679,35.8718763 L46.2620768,35.8718763 Z M46.2620768,38.1218763 L8.01207679,38.1218763 L8.01207679,45.9968763 L46.2620768,45.9968763 L46.2620768,38.1218763 Z" id="矩形" fill="#333333" fill-rule="nonzero"></path>
                    <path d="M46.2620768,20.8501674 C47.5047175,20.8501674 48.5120768,21.8575268 48.5120768,23.1001674 L48.5120768,30.9751674 C48.5120768,32.2178081 47.5047175,33.2251674 46.2620768,33.2251674 L8.01207679,33.2251674 C6.76943611,33.2251674 5.76207679,32.2178081 5.76207679,30.9751674 L5.76207679,23.1001674 C5.76207679,21.8575268 6.76943611,20.8501674 8.01207679,20.8501674 L46.2620768,20.8501674 Z M46.2620768,23.1001674 L8.01207679,23.1001674 L8.01207679,30.9751674 L46.2620768,30.9751674 L46.2620768,23.1001674 Z" id="矩形备份-4" fill="#333333" fill-rule="nonzero"></path>
                    <path d="M46.2620768,5.82845861 C47.5047175,5.82845861 48.5120768,6.83581793 48.5120768,8.07845861 L48.5120768,15.9534586 C48.5120768,17.1960993 47.5047175,18.2034586 46.2620768,18.2034586 L8.01207679,18.2034586 C6.76943611,18.2034586 5.76207679,17.1960993 5.76207679,15.9534586 L5.76207679,8.07845861 C5.76207679,6.83581793 6.76943611,5.82845861 8.01207679,5.82845861 L46.2620768,5.82845861 Z M46.2620768,8.07845861 L8.01207679,8.07845861 L8.01207679,15.9534586 L46.2620768,15.9534586 L46.2620768,8.07845861 Z" id="矩形备份-5" fill="#333333" fill-rule="nonzero"></path>
                    <path d="M28.9921017,9.63505073 C30.2347423,9.63505073 31.2421017,10.64241 31.2421017,11.8850507 C31.2421017,13.1276914 30.2347423,14.1350507 28.9921017,14.1350507 C27.749461,14.1350507 26.7421017,13.1276914 26.7421017,11.8850507 C26.7421017,10.64241 27.749461,9.63505073 28.9921017,9.63505073 Z M28.9921017,10.7600507 C28.3707813,10.7600507 27.8671017,11.2637304 27.8671017,11.8850507 C27.8671017,12.5063711 28.3707813,13.0100507 28.9921017,13.0100507 C29.613422,13.0100507 30.1171017,12.5063711 30.1171017,11.8850507 C30.1171017,11.2637304 29.613422,10.7600507 28.9921017,10.7600507 Z" id="椭圆形备份-11" fill="#333333" fill-rule="nonzero"></path>
                    <circle id="椭圆形备份-14" fill="#F70000" cx="29.5713165" cy="26.8759604" r="1.336131"></circle>
                    <circle id="椭圆形备份-20" fill="#F70000" cx="34.805554" cy="12.4308351" r="1.33984139"></circle>
                    <circle id="椭圆形备份-21" fill="#F70000" cx="41.9010485" cy="42.4825044" r="1.2646713"></circle>
                    <path d="M28.9921017,25.050718 C30.2347423,25.050718 31.2421017,26.0580773 31.2421017,27.300718 C31.2421017,28.5433586 30.2347423,29.550718 28.9921017,29.550718 C27.749461,29.550718 26.7421017,28.5433586 26.7421017,27.300718 C26.7421017,26.0580773 27.749461,25.050718 28.9921017,25.050718 Z M28.9921017,26.175718 C28.3707813,26.175718 27.8671017,26.6793976 27.8671017,27.300718 C27.8671017,27.9220383 28.3707813,28.425718 28.9921017,28.425718 C29.613422,28.425718 30.1171017,27.9220383 30.1171017,27.300718 C30.1171017,26.6793976 29.613422,26.175718 28.9921017,26.175718 Z" id="椭圆形备份-14" fill="#333333" fill-rule="nonzero"></path>
                    <path d="M28.9921017,39.8093763 C30.2347423,39.8093763 31.2421017,40.8167356 31.2421017,42.0593763 C31.2421017,43.302017 30.2347423,44.3093763 28.9921017,44.3093763 C27.749461,44.3093763 26.7421017,43.302017 26.7421017,42.0593763 C26.7421017,40.8167356 27.749461,39.8093763 28.9921017,39.8093763 Z M28.9921017,40.9343763 C28.3707813,40.9343763 27.8671017,41.4380559 27.8671017,42.0593763 C27.8671017,42.6806966 28.3707813,43.1843763 28.9921017,43.1843763 C29.613422,43.1843763 30.1171017,42.6806966 30.1171017,42.0593763 C30.1171017,41.4380559 29.613422,40.9343763 28.9921017,40.9343763 Z" id="椭圆形备份-17" fill="#333333" fill-rule="nonzero"></path>
                    <path d="M35.1796017,9.63505073 C36.4222423,9.63505073 37.4296017,10.64241 37.4296017,11.8850507 C37.4296017,13.1276914 36.4222423,14.1350507 35.1796017,14.1350507 C33.936961,14.1350507 32.9296017,13.1276914 32.9296017,11.8850507 C32.9296017,10.64241 33.936961,9.63505073 35.1796017,9.63505073 Z M35.1796017,10.7600507 C34.5582813,10.7600507 34.0546017,11.2637304 34.0546017,11.8850507 C34.0546017,12.5063711 34.5582813,13.0100507 35.1796017,13.0100507 C35.800922,13.0100507 36.3046017,12.5063711 36.3046017,11.8850507 C36.3046017,11.2637304 35.800922,10.7600507 35.1796017,10.7600507 Z" id="椭圆形备份-12" fill="#333333" fill-rule="nonzero"></path>
                    <path d="M35.1796017,25.050718 C36.4222423,25.050718 37.4296017,26.0580773 37.4296017,27.300718 C37.4296017,28.5433586 36.4222423,29.550718 35.1796017,29.550718 C33.936961,29.550718 32.9296017,28.5433586 32.9296017,27.300718 C32.9296017,26.0580773 33.936961,25.050718 35.1796017,25.050718 Z M35.1796017,26.175718 C34.5582813,26.175718 34.0546017,26.6793976 34.0546017,27.300718 C34.0546017,27.9220383 34.5582813,28.425718 35.1796017,28.425718 C35.800922,28.425718 36.3046017,27.9220383 36.3046017,27.300718 C36.3046017,26.6793976 35.800922,26.175718 35.1796017,26.175718 Z" id="椭圆形备份-15" fill="#333333" fill-rule="nonzero"></path>
                    <path d="M35.1796017,39.8093763 C36.4222423,39.8093763 37.4296017,40.8167356 37.4296017,42.0593763 C37.4296017,43.302017 36.4222423,44.3093763 35.1796017,44.3093763 C33.936961,44.3093763 32.9296017,43.302017 32.9296017,42.0593763 C32.9296017,40.8167356 33.936961,39.8093763 35.1796017,39.8093763 Z M35.1796017,40.9343763 C34.5582813,40.9343763 34.0546017,41.4380559 34.0546017,42.0593763 C34.0546017,42.6806966 34.5582813,43.1843763 35.1796017,43.1843763 C35.800922,43.1843763 36.3046017,42.6806966 36.3046017,42.0593763 C36.3046017,41.4380559 35.800922,40.9343763 35.1796017,40.9343763 Z" id="椭圆形备份-18" fill="#333333" fill-rule="nonzero"></path>
                    <path d="M41.3671017,9.63505073 C42.6097423,9.63505073 43.6171017,10.64241 43.6171017,11.8850507 C43.6171017,13.1276914 42.6097423,14.1350507 41.3671017,14.1350507 C40.124461,14.1350507 39.1171017,13.1276914 39.1171017,11.8850507 C39.1171017,10.64241 40.124461,9.63505073 41.3671017,9.63505073 Z M41.3671017,10.7600507 C40.7457813,10.7600507 40.2421017,11.2637304 40.2421017,11.8850507 C40.2421017,12.5063711 40.7457813,13.0100507 41.3671017,13.0100507 C41.988422,13.0100507 42.4921017,12.5063711 42.4921017,11.8850507 C42.4921017,11.2637304 41.988422,10.7600507 41.3671017,10.7600507 Z" id="椭圆形备份-13" fill="#333333" fill-rule="nonzero"></path>
                    <path d="M41.3671017,25.050718 C42.6097423,25.050718 43.6171017,26.0580773 43.6171017,27.300718 C43.6171017,28.5433586 42.6097423,29.550718 41.3671017,29.550718 C40.124461,29.550718 39.1171017,28.5433586 39.1171017,27.300718 C39.1171017,26.0580773 40.124461,25.050718 41.3671017,25.050718 Z M41.3671017,26.175718 C40.7457813,26.175718 40.2421017,26.6793976 40.2421017,27.300718 C40.2421017,27.9220383 40.7457813,28.425718 41.3671017,28.425718 C41.988422,28.425718 42.4921017,27.9220383 42.4921017,27.300718 C42.4921017,26.6793976 41.988422,26.175718 41.3671017,26.175718 Z" id="椭圆形备份-16" fill="#333333" fill-rule="nonzero"></path>
                    <path d="M41.3671017,39.8093763 C42.6097423,39.8093763 43.6171017,40.8167356 43.6171017,42.0593763 C43.6171017,43.302017 42.6097423,44.3093763 41.3671017,44.3093763 C40.124461,44.3093763 39.1171017,43.302017 39.1171017,42.0593763 C39.1171017,40.8167356 40.124461,39.8093763 41.3671017,39.8093763 Z M41.3671017,40.9343763 C40.7457813,40.9343763 40.2421017,41.4380559 40.2421017,42.0593763 C40.2421017,42.6806966 40.7457813,43.1843763 41.3671017,43.1843763 C41.988422,43.1843763 42.4921017,42.6806966 42.4921017,42.0593763 C42.4921017,41.4380559 41.988422,40.9343763 41.3671017,40.9343763 Z" id="椭圆形备份-19" fill="#333333" fill-rule="nonzero"></path>
                    <path d="M21.803704,26.738218 C22.1143641,26.738218 22.366204,26.9900578 22.366204,27.300718 C22.366204,27.5768603 22.1672194,27.8065274 21.9048141,27.8541553 L21.803704,27.863218 L11.3592635,27.863218 C11.0486033,27.863218 10.7967635,27.6113781 10.7967635,27.300718 C10.7967635,27.0245756 10.995748,26.7949085 11.2581534,26.7472806 L11.3592635,26.738218 L21.803704,26.738218 Z" id="直线-31备份-3" fill="#333333" fill-rule="nonzero"></path>
                    <path d="M21.803704,11.3225507 C22.1143641,11.3225507 22.366204,11.5743906 22.366204,11.8850507 C22.366204,12.1611931 22.1672194,12.3908601 21.9048141,12.4384881 L21.803704,12.4475507 L11.3592635,12.4475507 C11.0486033,12.4475507 10.7967635,12.1957109 10.7967635,11.8850507 C10.7967635,11.6089084 10.995748,11.3792413 11.2581534,11.3316134 L11.3592635,11.3225507 L21.803704,11.3225507 Z" id="直线-31备份-5" fill="#333333" fill-rule="nonzero"></path>
                    <path d="M21.803704,41.4968763 C22.1143641,41.4968763 22.366204,41.7487161 22.366204,42.0593763 C22.366204,42.3355187 22.1672194,42.5651857 21.9048141,42.6128137 L21.803704,42.6218763 L11.3592635,42.6218763 C11.0486033,42.6218763 10.7967635,42.3700365 10.7967635,42.0593763 C10.7967635,41.7832339 10.995748,41.5535669 11.2581534,41.5059389 L11.3592635,41.4968763 L21.803704,41.4968763 Z" id="直线-31备份-4" fill="#333333" fill-rule="nonzero"></path>
                    <polygon id="路径-53" fill="#333333" fill-rule="nonzero" points="16.2844087 15.9398961 16.2844087 22.5 15.1594087 22.5 15.1594087 15.9398961"></polygon>
                    <polygon id="路径-53备份-2" fill="#333333" fill-rule="nonzero" points="16.2844087 32.2223499 16.2844087 37.8201212 15.1594087 37.8201212 15.1594087 32.2223499"></polygon>
                    <polygon id="路径-53备份" fill="#333333" fill-rule="nonzero" points="38.8405913 15.9398961 38.8405913 22.5 37.7155913 22.5 37.7155913 15.9398961"></polygon>
                    <polygon id="路径-53备份-3" fill="#333333" fill-rule="nonzero" points="38.8405913 32.2223499 38.8405913 37.8201212 37.7155913 37.8201212 37.7155913 32.2223499"></polygon>
                </g>
            </g>
        </g>
    </g>
</svg>